# xmcd
# 
# Track frame offsets:
#     150
#     18541
#     34548
#     52744
#     73974
#     83946
#     101728
#     109302
#     126663
#     141159
#     160570
#     176040
# 
# Disc length: 2651
# 
# Revision: 2
# Processed by: cddbd v1.5.2PL0 Copyright (c) Steve Scherf et al.
# Submitted via: fre:ac v1.0.17
# 
DISCID=a70a590c
DTITLE=Morcheeba - Fragments Of Freedom
DYEAR=2000
DGENRE=Trip-Hop
TTITLE0=World looking in
TTITLE1=Rome wasn't built in a day
TTITLE2=Love is rare
TTITLE3=Let it go
TTITLE4=A well deserved break
TTITLE5=Love sweet love (feat. mr complex)
TTITLE6=In the hands of the gods (feat. biz markie)
TTITLE7=Shallow end
TTITLE8=Be yourself
TTITLE9=Coming down gently
TTITLE10=Good girl down (feat. bahamadia)
TTITLE11=Fragments of freedom
EXTD=
EXTT0=
EXTT1=
EXTT2=
EXTT3=
EXTT4=
EXTT5=
EXTT6=
EXTT7=
EXTT8=
EXTT9=
EXTT10=
EXTT11=
PLAYORDER=
